HIERARCHY
ROOT pelvis
{
  OFFSET 0 100 0
  CHANNELS 6 Xposition Yposition Zposition Zrotation Xrotation Yrotation
  JOINT pelvis_right_femur
  {
    OFFSET -10.78128 -3.44521 -0.5502486
    CHANNELS 3 Zrotation Xrotation Yrotation
    JOINT right_femur_tibia
    {
      OFFSET -0.8047443 -44.0398 -0.1307829
      CHANNELS 3 Zrotation Xrotation Yrotation
      JOINT right_tibia_foot
      {
        OFFSET 3.006224 -47.83518 -5
        CHANNELS 3 Zrotation Xrotation Yrotation
        End Site
        {
          OFFSET 0 -5 15
        }
      }
    }
  }
  JOINT pelvis_left_femur
  {
    OFFSET 10.78128 -3.44521 -0.5502486
    CHANNELS 3 Zrotation Xrotation Yrotation
    JOINT left_femur_tibia
    {
      OFFSET 0.8047443 -44.0398 -0.1307829
      CHANNELS 3 Zrotation Xrotation Yrotation
      JOINT left_tibia_foot
      {
        OFFSET -4.370144 -48.10324 -4.275266
        CHANNELS 3 Zrotation Xrotation Yrotation
        End Site
        {
          OFFSET 0 -5 15
        }
      }
    }
  }
  JOINT pelvis_spine1
  {
    OFFSET 0 6.468898 -3.129235
    CHANNELS 3 Zrotation Xrotation Yrotation
    JOINT spine1
    {
      OFFSET 0 23.15396 4.99043
      CHANNELS 3 Zrotation Xrotation Yrotation
      JOINT spine2
      {
        OFFSET 0 20.79997 -5.064912
        CHANNELS 3 Zrotation Xrotation Yrotation
        JOINT neck
        {
          OFFSET 0 14.38658 9.616178
          CHANNELS 3 Zrotation Xrotation Yrotation
          End Site
          {
            OFFSET 0 20 0
          }
        }
      }
      JOINT right_manubrium
      {
        OFFSET -5.722621 16.35077 3.967754
        CHANNELS 3 Zrotation Xrotation Yrotation
        JOINT right_clavicle
        {
          OFFSET -13.16364 1.694482 -4.693211
          CHANNELS 3 Zrotation Xrotation Yrotation
          JOINT right_humerus
          {
            OFFSET -28.5034 -0.3100689 -2.792744
            CHANNELS 3 Zrotation Xrotation Yrotation
            JOINT right_radius
            {
              OFFSET -25.15693 0.02248979 -1.271978
              CHANNELS 3 Zrotation Xrotation Yrotation
              End Site
              {
                OFFSET -15 0 0
              }
            }
          }
        }
      }
      JOINT left_manubrium
      {
        OFFSET 5.722621 16.35077 3.967754
        CHANNELS 3 Zrotation Xrotation Yrotation
        JOINT left_clavicle
        {
          OFFSET 13.16364 1.694482 -4.693211
          CHANNELS 3 Zrotation Xrotation Yrotation
          JOINT left_humerus
          {
            OFFSET 29.39168 -1.063119 -2.237045
            CHANNELS 3 Zrotation Xrotation Yrotation
            JOINT left_radius
            {
              OFFSET 24.59957 -0.9528479 0.9047498
              CHANNELS 3 Zrotation Xrotation Yrotation
              End Site
              {
                OFFSET 15 -0 -0
              }
            }
          }
        }
      }
    }
  }
}
MOTION
Frames: 11
Frame Time: 0.0416666666667
0 103.5113 0 -0.065585 -0.4347106 -0.2687623 0.02067594 -7.362092 6.413885 -0 28.87381 -0 -4.069254 -17.04884 -3.829418 -4.595102 0.5279225 -15.26 -0 18.55261 -0 1.867701 -22.99328 19.28147 -1.777065 -5.467851 3.81053 1.515857 9.430373 -8.515432 0.4700594 21.15438 8.358778 5.406479 -26.18502 8.182133 8.013714 -21.62995 12.71042 85.06046 35.90403 -17.64812 -0 0 16.34846 -12.81895 5.7435 11.59567 11.95287 -26.96581 3.947224 -103.4575 27.81436 28.21083 0 0 -7.902608 8.602551 30.30723 1.523718
0.4008961 103.4449 1.064831 -0.07233557 -0.4697882 -0.5474088 0.2459055 -10.45138 6.51243 -0 34.06934 -0 -4.467671 -16.30098 -4.962699 -4.763225 1.722656 -15.15353 -0 17.62468 -0 1.736564 -23.43354 19.3063 -2.077222 -4.713911 3.473769 1.587695 9.429542 -8.669122 0.6593121 21.06955 8.389464 5.645728 -27.00118 8.411963 7.998868 -21.67763 12.69188 84.74003 35.8058 -17.21052 -0 0 16.52073 -13.27878 5.80837 12.09006 11.60214 -26.24283 3.755784 -102.6899 28.27406 27.99505 0 0 -8.772522 8.805968 29.57297 1.99917
0.7135152 103.5072 2.357772 -0.08058365 -0.511031 -0.8754283 0.8391917 -13.98727 6.295711 -0 38.23288 -0 -4.973699 -15.72153 -5.627397 -4.859983 3.185583 -15.03311 -0 16.42118 -0 1.461536 -23.74205 19.37037 -2.496738 -3.894811 3.086704 1.766502 9.345827 -8.888316 0.8997595 20.97328 8.411161 5.938557 -27.73993 8.647635 8.03218 -21.67211 12.65721 84.50479 35.71535 -17.00893 -0 0 16.46251 -13.64309 5.884899 12.46422 11.21104 -25.63334 3.437031 -101.861 28.69315 27.64096 0 0 -9.813521 8.941646 28.76644 2.418109
0.9129261 103.7073 3.872687 -0.08942281 -0.553204 -1.211635 1.429578 -17.78017 5.734319 -0 40.48466 -0 -5.480391 -14.85298 -5.782247 -4.877934 4.923955 -14.86944 -0 14.96459 -0 1.058374 -23.96508 19.43085 -3.055568 -2.86598 2.799911 2.059799 9.226688 -9.055321 1.209254 20.72257 8.389184 6.273271 -28.46583 8.859189 8.038037 -21.29377 12.7475 84.58533 35.63575 -17.25982 -0 0 16.02953 -13.8629 5.999206 12.67998 10.9201 -25.16816 2.96146 -100.9648 29.07658 26.99943 0 0 -11.21167 9.069328 27.89861 2.705555
1.138837 103.8674 5.650741 -0.1009383 -0.6062808 -1.635781 1.781336 -21.33956 4.920187 -0 40.64499 -0 -5.955027 -13.38021 -5.581299 -4.92416 6.878851 -14.65342 -0 13.47743 -0 0.5736463 -24.21665 19.42385 -3.680401 -1.562073 2.474277 2.594531 9.018839 -9.347481 1.685906 20.4033 8.332824 6.70518 -29.10787 9.162233 7.928084 -20.9986 12.91339 84.61224 35.58992 -17.53981 -0 0 15.42684 -14.00603 6.123052 12.79694 10.75384 -24.68218 2.173532 -100.0946 29.39306 26.12781 0 0 -13.01301 9.185534 26.97622 2.852478
1.218317 103.7783 7.592612 -0.108506 -0.6388577 -1.897468 2.059253 -24.82992 3.929201 -0 37.54922 -0 -6.141557 -11.85462 -5.22772 -4.903441 8.791195 -14.44238 -0 12.24263 -0 0.09670908 -24.63582 19.31708 -4.194294 -0.2840279 2.386863 3.009874 8.720933 -9.452284 2.073353 19.99177 8.281892 7.064927 -29.60904 9.364799 7.650272 -20.52446 13.04078 84.83178 35.53538 -18.04793 -0 0 14.65443 -14.08022 6.258332 12.82915 10.84085 -24.48904 1.639573 -99.02514 29.63058 24.81509 0 0 -15.05548 9.419152 26.00374 2.898349
1.27758 103.4118 9.84667 -0.1084401 -0.6355873 -1.873665 2.042093 -27.69086 2.971655 -0 32.47967 -0 -6.161099 -10.26085 -4.79082 -4.898921 10.68096 -14.27081 -0 11.38197 -0 -0.375956 -25.19885 19.04055 -4.522844 1.03312 2.352963 3.402817 8.386259 -9.516103 2.375802 19.49936 8.23361 7.34715 -30.0062 9.475454 7.30023 -19.92975 13.13055 85.13458 35.46692 -18.76358 -0 0 13.62278 -14.06413 6.410114 12.72543 11.01514 -24.56961 1.276079 -97.80518 29.79002 23.15365 0 0 -17.1978 9.686323 24.99568 2.898915
1.282885 102.8004 12.52545 -0.1040896 -0.6125472 -1.692035 1.910191 -30.0749 2.197118 -0 26.58 -0 -6.138025 -8.694828 -4.438432 -4.911967 12.53592 -14.12019 -0 10.95917 -0 -0.9030178 -25.79461 18.61148 -4.681996 2.087234 2.199536 3.752141 8.14264 -9.657715 2.530681 19.11654 8.247222 7.535924 -30.25354 9.52882 6.93689 -19.29533 13.06799 85.63017 35.38874 -19.64327 -0 0 12.43885 -13.97061 6.591236 12.54589 11.17468 -24.72409 1.026354 -96.54187 29.8485 21.42587 0 0 -19.18484 9.91185 23.96623 2.938337
1.220804 102.0844 15.64721 -0.0891856 -0.5386032 -1.104443 1.686564 -31.97317 1.619467 -0 21.30426 -0 -6.171063 -7.378304 -4.232219 -4.843382 14.41037 -13.9128 -0 10.95736 -0 -1.564273 -26.3171 17.97667 -4.674481 2.993057 1.918922 4.014697 7.826294 -9.865539 2.568711 18.95112 8.336732 7.659012 -30.27147 9.568377 6.532782 -18.93244 12.97868 86.01492 35.34066 -20.33072 -0 0 11.33943 -13.88016 6.777505 12.37808 11.27357 -25.0215 0.8229332 -95.19608 29.82422 19.66145 0 0 -20.87687 10.04216 22.92937 3.066303
1.090612 101.0804 19.19256 -0.080834 -0.4948397 -0.7575091 1.669027 -33.39432 1.002297 -0 17.10045 -0 -6.378601 -6.310067 -4.108549 -4.851522 16.18127 -13.70686 -0 11.6865 -0 -2.452011 -26.62556 17.11773 -4.566098 3.706 1.659168 4.176817 7.755606 -10.03336 2.556618 18.73703 8.472488 7.742661 -30.2192 9.618561 6.218449 -18.32728 12.80567 86.74424 35.30256 -21.40052 -0 0 9.960279 -13.63831 7.036606 12.10098 11.03398 -25.04907 0.6495468 -94.20073 29.71362 18.45041 0 0 -21.88004 9.949305 21.88041 3.375851
0.9066045 100.409 23.40961 -0.06623227 -0.4173987 -0.1428044 1.710589 -33.54481 0.8756589 -0 15.63748 -0 -6.829071 -5.670288 -3.934612 -4.498562 17.97023 -13.42352 -0 13.27514 -0 -3.730295 -26.2687 15.94251 -4.393166 4.237167 1.152448 4.400232 7.618449 -10.46478 2.390975 18.72251 8.709518 7.776945 -30.16423 9.674789 6.066738 -17.85109 12.5814 87.45355 35.28518 -22.40277 -0 0 8.642408 -13.37521 7.333652 11.84 10.63348 -25.05222 0.343427 -93.41923 29.60924 17.48731 0 0 -22.56782 9.744757 20.89827 3.771217
